HIERARCHY
ROOT pelvis
{
  OFFSET 0 100 0
  CHANNELS 6 Xposition Yposition Zposition Zrotation Xrotation Yrotation
  JOINT pelvis_right_femur
  {
    OFFSET -10.78128 -3.44521 -0.5502486
    CHANNELS 3 Zrotation Xrotation Yrotation
    JOINT right_femur_tibia
    {
      OFFSET -0.8047443 -44.0398 -0.1307829
      CHANNELS 3 Zrotation Xrotation Yrotation
      JOINT right_tibia_foot
      {
        OFFSET 3.006224 -47.83518 -5
        CHANNELS 3 Zrotation Xrotation Yrotation
        End Site
        {
          OFFSET 0 -5 15
        }
      }
    }
  }
  JOINT pelvis_left_femur
  {
    OFFSET 10.78128 -3.44521 -0.5502486
    CHANNELS 3 Zrotation Xrotation Yrotation
    JOINT left_femur_tibia
    {
      OFFSET 0.8047443 -44.0398 -0.1307829
      CHANNELS 3 Zrotation Xrotation Yrotation
      JOINT left_tibia_foot
      {
        OFFSET -4.370144 -48.10324 -4.275266
        CHANNELS 3 Zrotation Xrotation Yrotation
        End Site
        {
          OFFSET 0 -5 15
        }
      }
    }
  }
  JOINT pelvis_spine1
  {
    OFFSET 0 6.468898 -3.129235
    CHANNELS 3 Zrotation Xrotation Yrotation
    JOINT spine1
    {
      OFFSET 0 23.15396 4.99043
      CHANNELS 3 Zrotation Xrotation Yrotation
      JOINT spine2
      {
        OFFSET 0 20.79997 -5.064912
        CHANNELS 3 Zrotation Xrotation Yrotation
        JOINT neck
        {
          OFFSET 0 14.38658 9.616178
          CHANNELS 3 Zrotation Xrotation Yrotation
          End Site
          {
            OFFSET 0 20 0
          }
        }
      }
      JOINT right_manubrium
      {
        OFFSET -5.722621 16.35077 3.967754
        CHANNELS 3 Zrotation Xrotation Yrotation
        JOINT right_clavicle
        {
          OFFSET -13.16364 1.694482 -4.693211
          CHANNELS 3 Zrotation Xrotation Yrotation
          JOINT right_humerus
          {
            OFFSET -28.5034 -0.3100689 -2.792744
            CHANNELS 3 Zrotation Xrotation Yrotation
            JOINT right_radius
            {
              OFFSET -25.15693 0.02248979 -1.271978
              CHANNELS 3 Zrotation Xrotation Yrotation
              End Site
              {
                OFFSET -15 0 0
              }
            }
          }
        }
      }
      JOINT left_manubrium
      {
        OFFSET 5.722621 16.35077 3.967754
        CHANNELS 3 Zrotation Xrotation Yrotation
        JOINT left_clavicle
        {
          OFFSET 13.16364 1.694482 -4.693211
          CHANNELS 3 Zrotation Xrotation Yrotation
          JOINT left_humerus
          {
            OFFSET 29.39168 -1.063119 -2.237045
            CHANNELS 3 Zrotation Xrotation Yrotation
            JOINT left_radius
            {
              OFFSET 24.59957 -0.9528479 0.9047498
              CHANNELS 3 Zrotation Xrotation Yrotation
              End Site
              {
                OFFSET 15 -0 -0
              }
            }
          }
        }
      }
    }
  }
}
MOTION
Frames: 13
Frame Time: 0.0416666666667
0 103.5113 0 2.503806 0.08942531 0.05090888 3.423547 -15.06573 12.24169 -0 35.3871 -0 -2.174719 -18.06603 -3.586261 -8.882036 9.422705 -21.36981 -0 4.628532 -0 21.27164 -9.811317 30.00767 -2.142408 -2.288494 4.683208 2.762638 10.4728 -7.596946 1.737066 21.05412 6.522027 2.702473 -25.13271 10.03631 5.62747 -18.79927 11.46089 87.50782 37.79722 -19.92331 -0 0 13.24857 -7.172249 9.400853 4.371342 6.02723 -20.41411 -1.472183 -90.76898 21.03183 19.19628 0 0 -18.15863 14.32547 12.76656 -2.323565
0.4450242 103.4259 1.753476 1.934539 1.203213 0.06250536 4.635534 -18.5913 12.93551 -0 35.02798 -0 -2.541737 -17.66458 -3.549888 -8.604159 9.715962 -21.33707 -0 4.880626 -0 21.93202 -10.32309 30.26078 -2.28504 -2.318624 4.529461 3.088123 10.42394 -7.760261 1.581486 20.83487 6.963815 2.723489 -26.0962 10.52877 5.347039 -19.1553 11.54854 88.22664 38.37104 -20.77422 -0 0 12.58782 -6.46376 8.996361 4.498058 5.95917 -20.47192 -1.833642 -90.16631 21.35282 18.89923 0 0 -20.88497 14.88734 11.41129 -2.59956
0.7968758 103.1764 3.624932 1.367446 0.8376696 0.1125488 4.870223 -20.6582 10.82732 -0 33.53304 -0 -3.799733 -15.78818 -3.021455 -7.916195 10.74641 -21.54927 -0 5.126716 -0 18.14665 -12.90859 28.96054 -2.268178 -2.31536 4.562449 2.995865 10.4453 -7.718235 1.621704 20.83669 6.933093 2.749553 -25.96294 10.51305 5.364261 -19.14967 11.51964 88.20177 38.47481 -20.66295 -0 0 12.70965 -6.556467 9.071403 4.445416 6.026765 -20.47498 -1.774507 -90.15383 21.17996 18.85028 0 0 -20.69087 15.04574 11.52233 -2.821607
1.09328 102.8641 5.677114 0.8229868 1.062753 0.1362933 5.497825 -23.37305 9.91183 -0 31.9696 -0 -4.545612 -14.15126 -2.640848 -7.399246 11.38067 -21.34905 -0 5.531546 -0 16.36297 -14.48501 28.07412 -2.310042 -2.333324 4.509054 3.145903 10.41033 -7.787497 1.551173 20.80175 7.031658 2.723934 -26.25764 10.59933 5.301574 -19.22031 11.56323 88.31418 38.41997 -20.89403 -0 0 12.50475 -6.362921 8.924087 4.532526 5.945376 -20.48217 -1.885258 -90.10384 21.43622 18.88857 0 0 -21.27612 14.92772 11.21422 -2.589258
1.349644 102.4506 7.976547 0.3116732 1.288441 0.1612523 6.090683 -26.10878 8.956576 -0 29.88924 -0 -5.200216 -12.2186 -2.202769 -6.908316 11.97461 -20.90429 -0 6.082834 -0 14.70195 -15.94776 27.0123 -2.329161 -2.303831 4.463697 3.222994 10.38788 -7.808782 1.513033 20.79464 7.088569 2.71107 -26.36574 10.63629 5.267621 -19.21167 11.59364 88.37046 38.43536 -20.98164 -0 0 12.31125 -6.283415 8.856166 4.623073 5.878376 -20.47276 -1.979927 -89.97339 21.52922 18.80292 0 0 -21.70422 14.87773 10.98601 -2.480708
1.581909 101.9398 10.59385 -0.133706 1.609442 0.2038689 6.683575 -28.77894 8.134909 -0 27.39893 -0 -5.722534 -10.16245 -1.742562 -6.511956 12.4894 -20.21635 -0 6.860675 -0 13.54897 -17.06859 25.93486 -2.356252 -2.266252 4.391127 3.357653 10.34907 -7.852861 1.449966 20.79974 7.149256 2.67775 -26.51963 10.65714 5.23487 -19.17715 11.64473 88.41114 38.34787 -21.10833 -0 0 12.03125 -6.176331 8.748815 4.764435 5.753242 -20.45271 -2.114273 -89.85564 21.73036 18.74098 0 0 -22.16834 14.67188 10.7213 -2.184186
1.799611 101.3424 13.60005 -0.5040683 1.971028 0.2896574 7.196731 -31.15835 7.292898 -0 24.58329 -0 -6.209607 -8.009625 -1.265146 -6.208935 12.97005 -19.31664 -0 7.985118 -0 12.62387 -17.90851 24.73806 -2.375309 -2.195349 4.305564 3.482053 10.3102 -7.883915 1.391294 20.82275 7.194437 2.643451 -26.59774 10.64691 5.215682 -19.08431 11.69937 88.42893 38.26234 -21.19067 -0 0 11.69679 -6.114216 8.664935 4.934265 5.608941 -20.42226 -2.266346 -89.67563 21.8879 18.59905 0 0 -22.61304 14.44196 10.45921 -1.876499
2.007411 100.699 17.05795 -0.8006546 2.347207 0.4468426 7.598469 -32.98852 6.406615 -0 21.71969 -0 -6.740851 -5.894936 -0.8080192 -5.998413 13.40943 -18.23889 -0 9.651085 -0 11.79145 -18.39061 23.36731 -2.391041 -2.105217 4.204871 3.61458 10.26856 -7.916437 1.329237 20.86028 7.225814 2.603189 -26.63781 10.60635 5.20867 -18.94735 11.76051 88.42754 38.13427 -21.26136 -0 0 11.31541 -6.079405 8.586715 5.130121 5.439414 -20.38501 -2.434995 -89.47426 22.04942 18.42318 0 0 -23.01534 14.14104 10.20642 -1.50016
2.205617 100.0831 21.01423 -1.052744 2.684281 0.6974119 7.894555 -34.01336 5.48401 -0 19.1831 -0 -7.402761 -3.970931 -0.419943 -5.84069 13.77005 -17.02032 -0 12.13065 -0 10.83974 -18.41171 21.73141 -2.397632 -1.991674 4.095278 3.7362 10.23074 -7.943176 1.272713 20.91339 7.234895 2.56159 -26.60661 10.52934 5.218602 -18.75841 11.82259 88.40688 37.98389 -21.30436 -0 0 10.90277 -6.090537 8.5334 5.337911 5.258011 -20.34397 -2.610086 -89.2417 22.17647 18.19383 0 0 -23.34248 13.80059 9.983828 -1.098479
2.392786 99.59888 25.48689 -1.311566 2.890128 1.039903 8.146554 -34.01392 4.606428 -0 17.40332 -0 -8.256197 -2.41643 -0.1532351 -5.656241 13.95168 -15.71208 -0 15.75084 -0 9.59853 -17.79924 19.77236 -2.393187 -1.860408 3.982249 3.84414 10.1997 -7.966655 1.223596 20.98227 7.214741 2.517744 -26.50302 10.41101 5.248342 -18.52216 11.88356 88.36394 37.7949 -21.32217 -0 0 10.48116 -6.150487 8.507555 5.545481 5.068567 -20.30088 -2.781928 -89.00546 22.27417 17.93632 0 0 -23.54212 13.40832 9.816191 -0.6607074
2.56972 99.36364 30.4516 -1.630023 2.828806 1.428251 8.439079 -32.87095 3.891707 -0 16.6888 -0 -9.308029 -1.396126 -0.04549059 -5.335564 13.77337 -14.38386 -0 20.8199 -0 7.992145 -16.3662 17.51406 -2.372887 -1.712172 3.874439 3.928259 10.18009 -7.983893 1.186904 21.06944 7.155001 2.471557 -26.31016 10.24364 5.302019 -18.23836 11.9402 88.29042 37.56066 -21.30225 -0 0 10.07592 -6.270548 8.519206 5.739947 4.876206 -20.25549 -2.939131 -88.78686 22.33334 17.66839 0 0 -23.5541 12.96107 9.732466 -0.1884019
2.743454 99.47545 35.82816 -2.01675 2.353405 1.758662 8.80024 -30.5959 3.42199 -0 17.0124 -0 -10.48712 -1.028013 -0.1002598 -4.790915 12.96357 -13.11812 -0 27.4765 -0 6.123062 -14.02331 15.1231 -2.332387 -1.548421 3.782567 3.980141 10.17526 -7.991208 1.165805 21.17809 7.045472 2.421912 -26.01568 10.01865 5.382173 -17.911 11.9902 88.17148 37.26738 -21.22601 -0 0 9.718107 -6.464105 8.574748 5.913634 4.682585 -20.20514 -3.070459 -88.61603 22.35392 17.42116 0 0 -23.31243 12.44289 9.760301 0.3325126
2.926582 99.97711 41.47655 -2.390108 1.392564 1.890277 9.126341 -27.31274 3.165923 -0 17.87004 -0 -11.6512 -1.343589 -0.2783828 -4.036758 11.19685 -11.9722 -0 35.48654 -0 4.276228 -10.94959 12.89698 -2.26704 -1.368584 3.72076 3.98715 10.18771 -7.979599 1.163463 21.31141 6.877537 2.369119 -25.60187 9.727845 5.488401 -17.54666 12.03093 87.98496 36.90858 -21.05902 -0 0 9.443383 -6.753605 8.682193 6.066961 4.4904 -20.14601 -3.165132 -88.5158 22.33058 17.22211 0 0 -22.76516 11.84235 9.919083 0.912221
